<svg xmlns="http://www.w3.org/2000/svg" xmlns:xlink="http://www.w3.org/1999/xlink" version="1.1" x="0px" y="0px" viewBox="0 0 90 112.5" enable-background="new 0 0 90 90" xml:space="preserve"><path fill="#000000" d="M85.987,49.951l-4.785-17.554L67.866,50.359l-20.58-8.604l4.756,17.448c0.09,0.33,0.305,0.609,0.602,0.775  c0.09,0.055,0.186,0.092,0.285,0.118c-0.037,0.056-0.07,0.11-0.107,0.162c-2.887,4.088-7.421,6.506-13.472,7.188  c-11.555,1.303-19.711-4.521-25.01-10.765c1.168-0.07,2.623-0.237,4.234-0.6c1.513,1.92,4.989,5.127,11.352,5.127  c1.39,0,2.917-0.152,4.59-0.506c7.31-1.541,10.633-7.485,11.307-12.532c0.621-4.668-0.831-8.759-3.611-10.182  c-1.016-0.521-2.868-0.973-5.423,0.342c0.396-1.037,0.769-2.069,1.138-3.095c2.482-6.896,4.441-12.346,11.244-12.826  c6.488-0.462,8.231,2.73,10.232,6.424c0.093,0.174,0.186,0.346,0.28,0.518c-1.112,0.519-1.724,1.741-1.95,2.301  c-1.149,0.787-1.849,1.767-2.08,2.92c-0.211,1.059,0.028,2.039,0.306,2.735l-7.657,2.089l18.705,7.814l12.022-16.19l-10.774,2.937  c-0.585-0.411-1.276-0.747-1.92-1.009c-2.275-0.911-3.387-2.961-4.675-5.337c-2.013-3.715-4.524-8.334-12.67-7.762  c-8.471,0.599-10.904,7.36-13.48,14.519c-1.153,3.207-2.347,6.526-4.142,9.562c-1.953,3.306-4.368,5.557-6.829,7.085  c-1.356-3.098-3.869-8.924-3.897-8.994c-0.22-0.508-0.739-0.82-1.296-0.769L5.137,42.539c-0.394,0.038-0.748,0.251-0.963,0.582  c-0.216,0.333-0.265,0.745-0.135,1.118c0.101,0.291,2.537,7.219,8.101,13.896c6.617,7.939,14.847,12.065,23.973,12.063  c1.161,0,2.337-0.066,3.522-0.2c6.817-0.769,11.961-3.551,15.291-8.267c0.542-0.765,1.015-1.563,1.436-2.376l28.725-7.828  c0.328-0.091,0.608-0.305,0.775-0.604C86.032,50.633,86.076,50.279,85.987,49.951z M65.376,35.331  c0.371,0.151,0.772,0.354,1.103,0.549c-3.981,1.174-8.478,0.82-9.128,0.759c-0.179-0.48-0.319-1.118-0.185-1.773  c0.161-0.793,0.704-1.484,1.611-2.057l0.233-0.149l0.087-0.262c0.125-0.371,0.636-1.473,1.347-1.704  C61.597,32.615,62.999,34.38,65.376,35.331z M24.451,53.99c0.111-0.051,0.211-0.114,0.302-0.188c3.172-1.7,6.351-4.378,8.825-8.564  c0.855-1.446,1.571-2.933,2.211-4.427c2.188-1.716,4.188-2.234,5.721-1.449c2.167,1.107,3.312,4.646,2.784,8.605  c-0.604,4.525-3.571,9.854-10.097,11.227c-7.813,1.651-12.007-1.279-13.986-3.536c1.305-0.383,2.676-0.901,4.057-1.603  C24.328,54.039,24.39,54.019,24.451,53.99z M12.357,54.155c-2.709-3.719-4.427-7.265-5.27-9.212l11.563-1.051  c0.773,1.79,2.576,5.964,3.616,8.336C17.937,54.197,13.868,54.231,12.357,54.155z"/><circle fill="#000000" cx="48.938" cy="30.515" r="2.317"/><text x="0" y="105" fill="#000000" font-size="5px" font-weight="bold" font-family="'Helvetica Neue', Helvetica, Arial-Unicode, Arial, Sans-serif">Created by Yazmin Alanis</text><text x="0" y="110" fill="#000000" font-size="5px" font-weight="bold" font-family="'Helvetica Neue', Helvetica, Arial-Unicode, Arial, Sans-serif">from the Noun Project</text></svg>